<svg width="32" height="31" viewBox="0 0 32 31" fill="none" xmlns="http://www.w3.org/2000/svg">
<path d="M20.6896 24.3644C20.6883 24.4885 20.831 24.5892 21.0123 24.591C21.2183 24.6117 21.3631 24.514 21.3645 24.3713C21.3658 24.2472 21.2231 24.1465 21.0418 24.1447C20.8545 24.1242 20.691 24.2218 20.6896 24.3644ZM22.6361 24.105C22.6785 24.2296 22.5521 24.371 22.3642 24.4063C22.2011 24.4666 22.0142 24.4027 21.978 24.2783C21.9418 24.1538 22.062 24.0124 22.25 23.9584C22.413 23.9167 22.5936 23.9805 22.6361 24.105ZM19.8748 23.9715C20.0556 24.0168 20.1794 24.1359 20.1592 24.2784C20.1392 24.4023 19.9758 24.4812 19.7888 24.4359C19.608 24.3907 19.4842 24.2715 19.5042 24.1477C19.5242 24.03 19.6937 23.9511 19.8748 23.9715ZM16.0041 0.15959C24.6724 0.247714 31.2369 6.84694 31.1495 15.4506C31.0795 22.3298 26.6574 28.1721 20.4054 30.1806C19.604 30.3151 19.3278 29.8222 19.3319 29.419C19.3358 29.0345 19.3761 26.9132 19.3893 25.6106C19.3893 25.6106 23.7546 26.5855 24.7016 23.8159C24.7016 23.8159 25.4324 22.018 26.4621 21.5632C26.4621 21.5632 27.9032 20.6039 26.3718 20.6069C26.3718 20.6069 24.8144 20.7152 23.9432 22.1828C22.5501 24.5633 20.2635 23.8514 19.374 23.4329C19.2403 22.439 18.8411 21.7463 18.3953 21.3323C21.8928 20.9832 25.4227 20.5166 25.4833 14.5493C25.5007 12.8434 25.0344 11.9826 24.0456 10.8807C24.2122 10.4791 24.7603 8.82212 23.9259 6.66716C22.6238 6.25068 19.5966 8.29814 19.5966 8.29814C18.3502 7.93807 17.0083 7.74452 15.6772 7.73098C14.346 7.71745 13.0005 7.88368 11.747 8.21834C11.747 8.21834 8.76209 6.10355 7.45174 6.49968C6.57365 8.64343 7.08804 10.3051 7.24643 10.7099C6.23532 11.7977 5.61415 12.6475 5.59687 14.3471C5.53602 20.3331 9.21222 20.8481 12.7018 21.2744C12.1219 21.7586 11.6249 22.6841 11.6101 24.1418C11.5889 26.2323 11.5813 28.8191 11.5761 29.3278C11.572 29.731 11.2796 30.2181 10.4873 30.0674C4.25858 27.9444 0.0811422 22.0146 0.151077 15.1355C0.238543 6.53181 7.33583 0.0714669 16.0041 0.15959ZM25.0112 21.6477C25.0918 21.7106 25.0716 21.8531 24.9641 21.9698C24.8631 22.0681 24.7189 22.11 24.6385 22.0286C24.5579 21.9657 24.5781 21.8232 24.6855 21.7064C24.7866 21.6082 24.9307 21.5663 25.0112 21.6477ZM25.6912 21.1521C25.7342 21.2332 25.6707 21.3318 25.545 21.3926C25.4444 21.4536 25.3196 21.4337 25.2767 21.3464C25.2338 21.2653 25.2973 21.1667 25.4229 21.106C25.5483 21.07 25.6481 21.0897 25.6912 21.1521ZM23.6439 23.3398C23.7431 23.4215 23.7037 23.6072 23.5587 23.7236C23.4135 23.8648 23.2321 23.8816 23.1519 23.7815C23.0714 23.7 23.1108 23.5143 23.237 23.3977C23.376 23.2565 23.5637 23.2398 23.6439 23.3398ZM24.3656 22.4352C24.465 22.4983 24.4633 22.6596 24.3619 22.8012C24.2605 22.9429 24.0911 23.0032 24.0105 22.9403C23.9113 22.8587 23.9129 22.6974 24.0144 22.5557C24.1033 22.4139 24.2664 22.3536 24.3656 22.4352Z" fill="black"/>
</svg>
