<svg width="263" height="53" viewBox="0 0 263 53" fill="none" xmlns="http://www.w3.org/2000/svg">
<path d="M122 8H257V46H122V8Z" stroke="white" stroke-width="2"/>
<path d="M37.008 31.096V37H25.632V31.096H27.144V25.192C27.144 24.4 26.976 23.824 26.64 23.464C26.304 23.08 25.8 22.888 25.128 22.888C23.688 22.888 22.968 23.656 22.968 25.192V31.096H24.48V37H13.176V31.096H14.688V25.192C14.688 24.4 14.52 23.824 14.184 23.464C13.848 23.08 13.344 22.888 12.672 22.888C11.232 22.888 10.512 23.656 10.512 25.192V31.096H12.024V37H0.648V31.096H2.232V22.888H0.648V16.984H10.512V19.792C12.24 17.584 14.4 16.48 16.992 16.48C18.456 16.48 19.644 16.828 20.556 17.524C21.492 18.196 22.152 19.156 22.536 20.404C23.4 19.156 24.384 18.196 25.488 17.524C26.616 16.852 27.936 16.516 29.448 16.516C31.44 16.516 32.928 17.14 33.912 18.388C34.92 19.636 35.424 21.352 35.424 23.536V31.096H37.008ZM59.1477 31.096V37H49.6437V34.552C49.1157 35.32 48.3717 36.004 47.4117 36.604C46.4757 37.204 45.3237 37.504 43.9557 37.504C42.1557 37.504 40.7397 37.024 39.7077 36.064C38.6757 35.104 38.1597 33.748 38.1597 31.996C38.1597 27.46 42.0117 25.132 49.7157 25.012C49.6437 24.196 49.3317 23.644 48.7797 23.356C48.2277 23.044 47.2917 22.888 45.9717 22.888C44.8917 22.888 43.7277 23.008 42.4797 23.248C41.2557 23.464 40.1277 23.764 39.0957 24.148V17.524C40.3677 17.212 41.7477 16.96 43.2357 16.768C44.7237 16.576 46.1757 16.48 47.5917 16.48C51.1677 16.48 53.7237 17.128 55.2597 18.424C56.7957 19.72 57.5637 21.724 57.5637 24.436V31.096H59.1477ZM49.6437 28.576C48.5637 28.576 47.7237 28.72 47.1237 29.008C46.5477 29.296 46.2597 29.776 46.2597 30.448C46.2597 30.856 46.3797 31.192 46.6197 31.456C46.8837 31.696 47.2437 31.816 47.6997 31.816C48.3237 31.816 48.8037 31.552 49.1397 31.024C49.4757 30.496 49.6437 29.752 49.6437 28.792V28.576ZM70.8562 45.496C69.1282 45.496 67.4722 45.376 65.8882 45.136C64.3282 44.896 63.1162 44.62 62.2522 44.308V38.404C64.7962 38.86 67.0762 39.088 69.0922 39.088C70.4602 39.088 71.4442 38.872 72.0442 38.44C72.6682 38.032 72.9802 37.252 72.9802 36.1V34.552C72.3802 35.32 71.6002 36.004 70.6402 36.604C69.7042 37.204 68.6242 37.504 67.4002 37.504C64.9522 37.504 63.1042 36.592 61.8562 34.768C60.6322 32.944 60.0202 30.352 60.0202 26.992C60.0202 23.632 60.6322 21.04 61.8562 19.216C63.1042 17.392 64.9522 16.48 67.4002 16.48C68.6242 16.48 69.7042 16.78 70.6402 17.38C71.6002 17.98 72.3802 18.664 72.9802 19.432V16.984H82.8442V22.888H81.2602V35.56C81.2602 39.04 80.3962 41.56 78.6682 43.12C76.9402 44.704 74.3362 45.496 70.8562 45.496ZM70.8922 31.096C71.5882 31.096 72.1042 30.916 72.4402 30.556C72.8002 30.172 72.9802 29.584 72.9802 28.792V25.192C72.9802 24.4 72.8002 23.824 72.4402 23.464C72.1042 23.08 71.5882 22.888 70.8922 22.888C70.1962 22.888 69.6682 23.08 69.3082 23.464C68.9722 23.824 68.8042 24.4 68.8042 25.192V28.792C68.8042 29.584 68.9722 30.172 69.3082 30.556C69.6682 30.916 70.1962 31.096 70.8922 31.096ZM85.5908 15.004V8.992H92.9348V15.004H85.5908ZM83.8628 37V31.096H85.4468V22.888H83.8628V16.984H93.7268V31.096H95.3108V37H83.8628ZM107.072 37.504C103.64 37.504 100.964 36.616 99.0442 34.84C97.1242 33.04 96.1642 30.424 96.1642 26.992C96.1642 23.56 97.1242 20.956 99.0442 19.18C100.964 17.38 103.628 16.48 107.036 16.48C108.692 16.48 110.276 16.708 111.788 17.164C113.3 17.62 114.476 18.136 115.316 18.712V25.84H109.124V25.192C109.124 24.4 108.956 23.824 108.62 23.464C108.284 23.08 107.756 22.888 107.036 22.888C105.644 22.888 104.948 23.656 104.948 25.192V28.288C104.948 30.16 106.016 31.096 108.152 31.096C110.144 31.096 112.46 30.88 115.1 30.448V36.1C114.284 36.46 113.132 36.784 111.644 37.072C110.18 37.36 108.656 37.504 107.072 37.504Z" fill="white"/>
<path opacity="0.5" d="M164.008 31.096V37H152.632V31.096H154.144V25.192C154.144 24.4 153.976 23.824 153.64 23.464C153.304 23.08 152.8 22.888 152.128 22.888C150.688 22.888 149.968 23.656 149.968 25.192V31.096H151.48V37H140.176V31.096H141.688V25.192C141.688 24.4 141.52 23.824 141.184 23.464C140.848 23.08 140.344 22.888 139.672 22.888C138.232 22.888 137.512 23.656 137.512 25.192V31.096H139.024V37H127.648V31.096H129.232V22.888H127.648V16.984H137.512V19.792C139.24 17.584 141.4 16.48 143.992 16.48C145.456 16.48 146.644 16.828 147.556 17.524C148.492 18.196 149.152 19.156 149.536 20.404C150.4 19.156 151.384 18.196 152.488 17.524C153.616 16.852 154.936 16.516 156.448 16.516C158.44 16.516 159.928 17.14 160.912 18.388C161.92 19.636 162.424 21.352 162.424 23.536V31.096H164.008ZM175.888 37.504C172.48 37.504 169.816 36.616 167.896 34.84C165.976 33.04 165.016 30.424 165.016 26.992C165.016 23.56 165.976 20.956 167.896 19.18C169.816 17.38 172.48 16.48 175.888 16.48C179.344 16.48 182.02 17.392 183.916 19.216C185.812 21.016 186.76 23.608 186.76 26.992C186.76 30.424 185.8 33.04 183.88 34.84C181.96 36.616 179.296 37.504 175.888 37.504ZM175.888 31.096C176.584 31.096 177.1 30.916 177.436 30.556C177.796 30.172 177.976 29.584 177.976 28.792V25.192C177.976 24.4 177.796 23.824 177.436 23.464C177.1 23.08 176.584 22.888 175.888 22.888C175.192 22.888 174.664 23.08 174.304 23.464C173.968 23.824 173.8 24.4 173.8 25.192V28.792C173.8 29.584 173.968 30.172 174.304 30.556C174.664 30.916 175.192 31.096 175.888 31.096ZM211.594 31.096V37H201.73V34.192C200.002 36.4 197.842 37.504 195.25 37.504C193.258 37.504 191.758 36.88 190.75 35.632C189.766 34.384 189.274 32.668 189.274 30.484V22.888H187.69V16.984H197.554V28.792C197.554 29.584 197.722 30.172 198.058 30.556C198.418 30.916 198.946 31.096 199.642 31.096C200.338 31.096 200.854 30.916 201.19 30.556C201.55 30.172 201.73 29.584 201.73 28.792V22.888H199.786V16.984H210.01V31.096H211.594ZM221.334 37.504C218.31 37.504 215.394 37.024 212.586 36.064V30.736H218.418V31.096C218.418 32.248 219.15 32.824 220.614 32.824C221.91 32.824 222.558 32.38 222.558 31.492C222.558 31.012 222.366 30.652 221.982 30.412C221.622 30.172 220.974 29.968 220.038 29.8L218.238 29.476C214.47 28.804 212.586 26.668 212.586 23.068C212.586 20.98 213.378 19.36 214.962 18.208C216.546 17.056 218.682 16.48 221.37 16.48C224.37 16.48 226.902 16.984 228.966 17.992V22.996H223.494V22.636C223.494 22.156 223.326 21.796 222.99 21.556C222.678 21.292 222.21 21.16 221.586 21.16C220.386 21.16 219.786 21.544 219.786 22.312C219.786 22.72 219.954 23.032 220.29 23.248C220.626 23.464 221.238 23.668 222.126 23.86L224.178 24.256C226.314 24.664 227.838 25.42 228.75 26.524C229.661 27.628 230.117 29.044 230.117 30.772C230.117 32.956 229.35 34.624 227.814 35.776C226.302 36.928 224.142 37.504 221.334 37.504ZM241.981 37.504C238.573 37.504 235.909 36.616 233.989 34.84C232.069 33.04 231.109 30.424 231.109 26.992C231.109 23.56 232.069 20.956 233.989 19.18C235.909 17.38 238.573 16.48 241.981 16.48C245.365 16.48 247.801 17.368 249.289 19.144C250.801 20.896 251.557 23.08 251.557 25.696V28.288H239.893V28.504C239.893 29.392 240.157 30.052 240.685 30.484C241.213 30.892 242.089 31.096 243.313 31.096C244.777 31.096 246.169 30.988 247.489 30.772C248.809 30.556 249.961 30.28 250.945 29.944V35.704C250.105 36.16 248.869 36.58 247.237 36.964C245.629 37.324 243.877 37.504 241.981 37.504ZM244.069 24.328V23.896C244.069 23.08 243.889 22.492 243.529 22.132C243.193 21.772 242.677 21.592 241.981 21.592C241.285 21.592 240.757 21.784 240.397 22.168C240.061 22.528 239.893 23.104 239.893 23.896V24.328H244.069Z" fill="white"/>
</svg>
